<svg width="12" height="12" viewBox="0 0 12 12" fill="none" xmlns="http://www.w3.org/2000/svg">
<path d="M6.29212 0.515004C6.23345 0.397671 6.14912 0.304171 6.03912 0.234504C5.92912 0.164837 5.80812 0.130004 5.67612 0.130004C5.54412 0.130004 5.42129 0.164837 5.30762 0.234504C5.19395 0.304171 5.10779 0.397671 5.04912 0.515004L3.67412 3.364L0.583119 3.815C0.458452 3.82967 0.344786 3.87917 0.242119 3.9635C0.139452 4.04784 0.0697857 4.15234 0.033119 4.277C-0.00354763 4.40167 -0.0072143 4.52817 0.022119 4.6565C0.0514524 4.78484 0.113786 4.893 0.209119 4.981L2.44212 7.203L1.91412 10.327C1.89212 10.459 1.90679 10.5837 1.95812 10.701C2.00945 10.8183 2.08645 10.9173 2.18912 10.998C2.29179 11.0787 2.40912 11.1227 2.54112 11.13C2.67312 11.1373 2.79779 11.1117 2.91512 11.053L5.67612 9.579L8.43712 11.053C8.55445 11.1117 8.67729 11.1373 8.80562 11.13C8.93395 11.1227 9.05312 11.0805 9.16312 11.0035C9.27312 10.9265 9.35195 10.8275 9.39962 10.7065C9.44729 10.5855 9.46012 10.459 9.43812 10.327L8.89912 7.203L11.1431 4.981C11.2385 4.893 11.3008 4.78484 11.3301 4.6565C11.3595 4.52817 11.3521 4.40167 11.3081 4.277C11.2641 4.15234 11.1945 4.04784 11.0991 3.9635C11.0038 3.87917 10.8901 3.82967 10.7581 3.815L7.67812 3.364L6.29212 0.515004Z" fill="#D1D5DB"/>
</svg>
